<?xml version="1.0" encoding="UTF-8" standalone="no"?>
<svg width="196px" height="46px" viewBox="0 0 196 46" version="1.1" xmlns="http://www.w3.org/2000/svg" xmlns:xlink="http://www.w3.org/1999/xlink" xmlns:sketch="http://www.bohemiancoding.com/sketch/ns">
    <!-- Generator: Sketch 3.4.4 (17249) - http://www.bohemiancoding.com/sketch -->
    <title>App Store</title>
    <desc>Created with Sketch.</desc>
    <defs></defs>
    <g id="Welcome" stroke="none" stroke-width="1" fill="none" fill-rule="evenodd" sketch:type="MSPage">
        <g id="Pipal" sketch:type="MSArtboardGroup" transform="translate(-554.000000, -616.000000)">
            <g id="App-Store" sketch:type="MSLayerGroup" transform="translate(534.000000, 602.000000)">
                <g id="icon" transform="translate(20.931618, 14.080000)" fill="#FFFFFF" sketch:type="MSShapeGroup">
                    <path d="M30.738682,24.1620181 C30.687262,18.4395586 35.4179006,15.6555634 35.6342192,15.5259514 C32.9550606,11.6145092 28.8024536,11.0800815 27.3431899,11.0374693 C23.8554964,10.6699394 20.472416,13.1272412 18.6957669,13.1272412 C16.8836557,13.1272412 14.1477579,11.0729795 11.1990877,11.1333467 C7.40464743,11.1919385 3.85489536,13.3917918 1.90802834,16.8078675 C-2.1098229,23.773182 0.886721054,34.0089807 4.73612752,39.6391138 C6.6617173,42.3982519 8.91178492,45.4752058 11.8569089,45.3668998 C14.7382011,45.2497164 15.8144746,43.5274744 19.2915295,43.5274744 C22.7366685,43.5274744 23.7473371,45.3668998 26.7509735,45.2958796 C29.843265,45.2497164 31.790132,42.5278639 33.6483439,39.7438687 C35.8735881,36.587017 36.7672319,33.471002 36.802694,33.3112064 C36.7317699,33.2881248 30.7989675,31.0208022 30.738682,24.1620181" id="Fill-2"></path>
                    <path d="M25.7760799,7.26004869 C27.3257719,5.31941938 28.3860874,2.67924027 28.0917523,0 C25.8487771,0.0994283997 23.0437283,1.55356875 21.4284315,3.45158588 C19.9993106,5.1241136 18.7226765,7.86549662 19.0524736,10.443533 C21.5720529,10.6317367 24.1590101,9.17049437 25.7760799,7.26004869" id="Fill-3"></path>
                </g>
                <g transform="translate(73.500339, 35.040000)"></g>
                <path d="M85.2954102,34.1157227 C84.3315381,34.1157227 83.5795925,34.5104941 83.0395508,35.3000488 C82.499509,36.0896036 82.2294922,37.1782157 82.2294922,38.565918 C82.2294922,41.450698 83.3266492,42.8930664 85.5209961,42.8930664 C86.1840853,42.8930664 86.826657,42.8007822 87.4487305,42.6162109 C88.0708039,42.4316397 88.6962859,42.209474 89.3251953,41.949707 L89.3251953,45.3745117 C88.0742125,45.9282254 86.6591876,46.2050781 85.0800781,46.2050781 C82.8173715,46.2050781 81.0827697,45.5488347 79.8762207,44.2363281 C78.6696717,42.9238216 78.0664062,41.0268679 78.0664062,38.5454102 C78.0664062,36.9936446 78.3586397,35.6298887 78.9431152,34.4541016 C79.5275908,33.2783144 80.3684027,32.3742707 81.4655762,31.7419434 C82.5627496,31.109616 83.8530199,30.793457 85.3364258,30.793457 C86.9565511,30.793457 88.5048754,31.1455043 89.9814453,31.8496094 L88.7407227,35.0385742 C88.187009,34.7788073 87.6333035,34.5600595 87.0795898,34.3823242 C86.5258761,34.204589 85.9311555,34.1157227 85.2954102,34.1157227 L85.2954102,34.1157227 Z M103.106445,40.1655273 C103.106445,42.0659275 102.595464,43.5476021 101.573486,44.6105957 C100.551509,45.6735893 99.1211029,46.2050781 97.2822266,46.2050781 C95.5185459,46.2050781 94.1154837,45.6616265 93.072998,44.574707 C92.0305124,43.4877875 91.5092773,42.0180757 91.5092773,40.1655273 C91.5092773,38.2719632 92.0202586,36.8005424 93.0422363,35.7512207 C94.0642141,34.7018991 95.4980376,34.1772461 97.34375,34.1772461 C98.4853573,34.1772461 99.493648,34.4199194 100.368652,34.9052734 C101.243657,35.3906274 101.918699,36.0861771 102.393799,36.9919434 C102.868899,37.8977096 103.106445,38.9555604 103.106445,40.1655273 L103.106445,40.1655273 Z M95.5800781,40.1655273 C95.5800781,41.1635792 95.7133776,41.9240697 95.9799805,42.4470215 C96.2465834,42.9699733 96.6943328,43.2314453 97.3232422,43.2314453 C97.9453156,43.2314453 98.3845202,42.9699733 98.6408691,42.4470215 C98.8972181,41.9240697 99.0253906,41.1635792 99.0253906,40.1655273 C99.0253906,39.1743115 98.8955091,38.4257838 98.6357422,37.9199219 C98.3759753,37.41406 97.9316438,37.1611328 97.3027344,37.1611328 C96.6874969,37.1611328 96.2465834,37.412351 95.9799805,37.9147949 C95.7133776,38.4172388 95.5800781,39.1674755 95.5800781,40.1655273 L95.5800781,40.1655273 Z M119.65625,46 L119.65625,39.6835938 C119.65625,38.897457 119.548585,38.3078633 119.333252,37.9147949 C119.117919,37.5217266 118.777834,37.3251953 118.312988,37.3251953 C117.697751,37.3251953 117.246583,37.5883763 116.959473,38.1147461 C116.672362,38.6411159 116.528809,39.4648381 116.528809,40.5859375 L116.528809,46 L112.509277,46 L112.509277,39.6835938 C112.509277,38.897457 112.406739,38.3078633 112.20166,37.9147949 C111.996581,37.5217266 111.665041,37.3251953 111.207031,37.3251953 C110.578122,37.3251953 110.120119,37.6054659 109.833008,38.1660156 C109.545897,38.7265653 109.402344,39.6425718 109.402344,40.9140625 L109.402344,46 L105.393066,46 L105.393066,34.3823242 L108.417969,34.3823242 L108.92041,35.8178711 L109.15625,35.8178711 C109.463869,35.2846653 109.909909,34.8779311 110.494385,34.5976562 C111.07886,34.3173814 111.743649,34.1772461 112.48877,34.1772461 C114.163583,34.1772461 115.339352,34.6865183 116.016113,35.7050781 L116.333984,35.7050781 C116.662111,35.2265601 117.118405,34.8522963 117.702881,34.5822754 C118.287356,34.3122545 118.931637,34.1772461 119.635742,34.1772461 C121.009772,34.1772461 122.024899,34.5292934 122.681152,35.2333984 C123.337406,35.9375035 123.665527,37.007317 123.665527,38.4428711 L123.665527,46 L119.65625,46 Z M130.422852,46 L126.413574,46 L126.413574,34.3823242 L130.422852,34.3823242 L130.422852,46 Z M126.311035,31.4907227 C126.311035,30.8891571 126.478514,30.4414077 126.813477,30.1474609 C127.148439,29.8535142 127.688473,29.706543 128.433594,29.706543 C129.178715,29.706543 129.722166,29.8569321 130.063965,30.1577148 C130.405763,30.4584976 130.57666,30.9028291 130.57666,31.4907227 C130.57666,32.6665098 129.862312,33.2543945 128.433594,33.2543945 C127.018548,33.2543945 126.311035,32.6665098 126.311035,31.4907227 L126.311035,31.4907227 Z M140.553711,46 L140.553711,39.6630859 C140.553711,38.8906211 140.442628,38.3078633 140.220459,37.9147949 C139.99829,37.5217266 139.641116,37.3251953 139.148926,37.3251953 C138.472165,37.3251953 137.9834,37.5952121 137.682617,38.1352539 C137.381834,38.6752957 137.231445,39.6015559 137.231445,40.9140625 L137.231445,46 L133.222168,46 L133.222168,34.3823242 L136.24707,34.3823242 L136.749512,35.8178711 L136.985352,35.8178711 C137.32715,35.2709934 137.800534,34.8608412 138.405518,34.5874023 C139.010501,34.3139635 139.706051,34.1772461 140.492188,34.1772461 C141.77735,34.1772461 142.777096,34.549801 143.491455,35.2949219 C144.205814,36.0400428 144.562988,37.0893487 144.562988,38.4428711 L144.562988,46 L140.553711,46 Z M158.251953,34.3823242 L158.251953,36.3203125 L156.662598,36.9047852 C156.881349,37.3012715 156.990723,37.7626927 156.990723,38.2890625 C156.990723,39.5400453 156.551518,40.5107387 155.673096,41.2011719 C154.794673,41.891605 153.483895,42.2368164 151.740723,42.2368164 C151.310056,42.2368164 150.968263,42.2094729 150.715332,42.1547852 C150.619628,42.3325204 150.571777,42.4999992 150.571777,42.6572266 C150.571777,42.8554697 150.73242,43.0075678 151.053711,43.1135254 C151.375002,43.219483 151.795408,43.2724609 152.314941,43.2724609 L154.242676,43.2724609 C156.847181,43.2724609 158.149414,44.3696179 158.149414,46.5639648 C158.149414,47.979011 157.546149,49.0795859 156.3396,49.8657227 C155.133051,50.6518594 153.439464,51.0449219 151.258789,51.0449219 C149.61132,51.0449219 148.341557,50.7697781 147.449463,50.2194824 C146.557369,49.6691867 146.111328,48.8779348 146.111328,47.8457031 C146.111328,46.4580009 146.972648,45.562502 148.695312,45.1591797 C148.339842,45.0087883 148.030519,44.766115 147.767334,44.4311523 C147.504149,44.0961897 147.372559,43.7646501 147.372559,43.4365234 C147.372559,43.0742169 147.471679,42.7546401 147.669922,42.4777832 C147.868165,42.2009264 148.281735,41.8710957 148.910645,41.4882812 C148.309079,41.2216784 147.835695,40.8046903 147.490479,40.2373047 C147.145262,39.669919 146.972656,38.9794963 146.972656,38.1660156 C146.972656,36.9013609 147.403316,35.9204136 148.264648,35.2231445 C149.125981,34.5258754 150.356437,34.1772461 151.956055,34.1772461 C152.16797,34.1772461 152.533689,34.2011716 153.053223,34.2490234 C153.572757,34.2968752 153.955565,34.3413084 154.20166,34.3823242 L158.251953,34.3823242 Z M149.495117,47.4458008 C149.495117,47.7739274 149.67285,48.0388174 150.02832,48.2404785 C150.383791,48.4421397 150.858884,48.5429688 151.453613,48.5429688 C152.424321,48.5429688 153.201901,48.4216321 153.786377,48.1789551 C154.370853,47.9362781 154.663086,47.6235371 154.663086,47.2407227 C154.663086,46.9331039 154.485353,46.7160651 154.129883,46.5895996 C153.774412,46.4631341 153.26514,46.3999023 152.602051,46.3999023 L151.033203,46.3999023 C150.602537,46.3999023 150.238527,46.5007314 149.941162,46.7023926 C149.643797,46.9040537 149.495117,47.151854 149.495117,47.4458008 L149.495117,47.4458008 Z M150.756348,38.1865234 C150.756348,39.3759825 151.169918,39.9707031 151.99707,39.9707031 C152.379885,39.9707031 152.675536,39.8237319 152.884033,39.5297852 C153.09253,39.2358384 153.196777,38.7949248 153.196777,38.2070312 C153.196777,37.0039002 152.796879,36.4023438 151.99707,36.4023438 C151.169918,36.4023438 150.756348,36.9970644 150.756348,38.1865234 L150.756348,38.1865234 Z M175.509277,41.4472656 C175.509277,42.3769578 175.27344,43.202389 174.801758,43.923584 C174.330076,44.644779 173.649907,45.2053203 172.76123,45.6052246 C171.872554,46.005129 170.830084,46.2050781 169.633789,46.2050781 C168.635737,46.2050781 167.798343,46.1350105 167.121582,45.994873 C166.444821,45.8547356 165.740726,45.6103533 165.009277,45.2617188 L165.009277,41.6523438 C165.781742,42.0488301 166.584957,42.3581532 167.418945,42.5803223 C168.252934,42.8024913 169.018551,42.9135742 169.71582,42.9135742 C170.317386,42.9135742 170.758299,42.8093272 171.038574,42.6008301 C171.318849,42.3923329 171.458984,42.1240251 171.458984,41.7958984 C171.458984,41.5908193 171.402588,41.4113777 171.289795,41.2575684 C171.177001,41.103759 170.995851,40.948243 170.746338,40.7910156 C170.496825,40.6337883 169.832037,40.3125024 168.751953,39.8271484 C167.774409,39.3828103 167.041262,38.9521505 166.55249,38.5351562 C166.063718,38.118162 165.701417,37.6396511 165.465576,37.0996094 C165.229735,36.5595676 165.111816,35.9204138 165.111816,35.1821289 C165.111816,33.8012626 165.614253,32.7246132 166.619141,31.9521484 C167.624028,31.1796836 169.004874,30.793457 170.761719,30.793457 C172.313484,30.793457 173.895988,31.1523402 175.509277,31.8701172 L174.268555,34.9975586 C172.86718,34.3549773 171.657232,34.0336914 170.638672,34.0336914 C170.112302,34.0336914 169.729493,34.1259756 169.490234,34.3105469 C169.250975,34.4951181 169.131348,34.7241197 169.131348,34.9975586 C169.131348,35.2915054 169.283446,35.5546863 169.587646,35.7871094 C169.891847,36.0195324 170.717278,36.4433563 172.063965,37.0585938 C173.355963,37.6396513 174.253171,38.2634244 174.755615,38.9299316 C175.258059,39.5964389 175.509277,40.4355418 175.509277,41.4472656 L175.509277,41.4472656 Z M188.685547,40.1655273 C188.685547,42.0659275 188.174566,43.5476021 187.152588,44.6105957 C186.13061,45.6735893 184.700205,46.2050781 182.861328,46.2050781 C181.097647,46.2050781 179.694585,45.6616265 178.6521,44.574707 C177.609614,43.4877875 177.088379,42.0180757 177.088379,40.1655273 C177.088379,38.2719632 177.59936,36.8005424 178.621338,35.7512207 C179.643316,34.7018991 181.077139,34.1772461 182.922852,34.1772461 C184.064459,34.1772461 185.07275,34.4199194 185.947754,34.9052734 C186.822758,35.3906274 187.4978,36.0861771 187.9729,36.9919434 C188.448,37.8977096 188.685547,38.9555604 188.685547,40.1655273 L188.685547,40.1655273 Z M181.15918,40.1655273 C181.15918,41.1635792 181.292479,41.9240697 181.559082,42.4470215 C181.825685,42.9699733 182.273434,43.2314453 182.902344,43.2314453 C183.524417,43.2314453 183.963622,42.9699733 184.219971,42.4470215 C184.47632,41.9240697 184.604492,41.1635792 184.604492,40.1655273 C184.604492,39.1743115 184.474611,38.4257838 184.214844,37.9199219 C183.955077,37.41406 183.510745,37.1611328 182.881836,37.1611328 C182.266598,37.1611328 181.825685,37.412351 181.559082,37.9147949 C181.292479,38.4172388 181.15918,39.1674755 181.15918,40.1655273 L181.15918,40.1655273 Z M202.066895,40.1655273 C202.066895,42.0659275 201.555913,43.5476021 200.533936,44.6105957 C199.511958,45.6735893 198.081552,46.2050781 196.242676,46.2050781 C194.478995,46.2050781 193.075933,45.6616265 192.033447,44.574707 C190.990962,43.4877875 190.469727,42.0180757 190.469727,40.1655273 C190.469727,38.2719632 190.980708,36.8005424 192.002686,35.7512207 C193.024663,34.7018991 194.458487,34.1772461 196.304199,34.1772461 C197.445806,34.1772461 198.454097,34.4199194 199.329102,34.9052734 C200.204106,35.3906274 200.879148,36.0861771 201.354248,36.9919434 C201.829348,37.8977096 202.066895,38.9555604 202.066895,40.1655273 L202.066895,40.1655273 Z M194.540527,40.1655273 C194.540527,41.1635792 194.673827,41.9240697 194.94043,42.4470215 C195.207033,42.9699733 195.654782,43.2314453 196.283691,43.2314453 C196.905765,43.2314453 197.344969,42.9699733 197.601318,42.4470215 C197.857667,41.9240697 197.98584,41.1635792 197.98584,40.1655273 C197.98584,39.1743115 197.855958,38.4257838 197.596191,37.9199219 C197.336424,37.41406 196.892093,37.1611328 196.263184,37.1611328 C195.647946,37.1611328 195.207033,37.412351 194.94043,37.9147949 C194.673827,38.4172388 194.540527,39.1674755 194.540527,40.1655273 L194.540527,40.1655273 Z M211.685059,46 L211.685059,39.6630859 C211.685059,38.8906211 211.573976,38.3078633 211.351807,37.9147949 C211.129638,37.5217266 210.772463,37.3251953 210.280273,37.3251953 C209.603512,37.3251953 209.114748,37.5952121 208.813965,38.1352539 C208.513182,38.6752957 208.362793,39.6015559 208.362793,40.9140625 L208.362793,46 L204.353516,46 L204.353516,34.3823242 L207.378418,34.3823242 L207.880859,35.8178711 L208.116699,35.8178711 C208.458498,35.2709934 208.931882,34.8608412 209.536865,34.5874023 C210.141849,34.3139635 210.837398,34.1772461 211.623535,34.1772461 C212.908698,34.1772461 213.908444,34.549801 214.622803,35.2949219 C215.337162,36.0400428 215.694336,37.0893487 215.694336,38.4428711 L215.694336,46 L211.685059,46 Z" id="Coming-Soon" fill="#FFFFFF" sketch:type="MSShapeGroup"></path>
            </g>
        </g>
    </g>
</svg>