<?xml version="1.0" encoding="UTF-8" standalone="no"?>
<svg width="32px" height="32px" viewBox="0 0 32 32" version="1.1" xmlns="http://www.w3.org/2000/svg" xmlns:xlink="http://www.w3.org/1999/xlink">
    <!-- Generator: Sketch 3.8.3 (29802) - http://www.bohemiancoding.com/sketch -->
    <title></title>
    <desc>Created with Sketch.</desc>
    <defs></defs>
    <g id="Welcome" stroke="none" stroke-width="1" fill="none" fill-rule="evenodd">
        <g id="Follow-me" transform="translate(-1053.000000, -462.000000)" fill="#585858">
            <path d="M1074.33333,490.583333 C1073.75,487.236094 1072.77778,483.777796 1071.41667,480.208333 L1071.375,480.208333 L1071.33333,480.229167 C1071.11111,480.3125 1070.8125,480.427083 1070.4375,480.572917 C1070.0625,480.718751 1069.36112,481.059025 1068.33333,481.59375 C1067.30555,482.128475 1066.35417,482.697914 1065.47917,483.302083 C1064.60416,483.906253 1063.69445,484.701384 1062.75,485.6875 C1061.80555,486.673616 1061.09028,487.701384 1060.60417,488.770833 L1060.29167,488.541667 C1062.84723,490.62501 1065.74998,491.666667 1069,491.666667 C1070.83334,491.666667 1072.6111,491.305559 1074.33333,490.583333 L1074.33333,490.583333 Z M1070.47917,477.9375 C1070.1875,477.256941 1069.81945,476.486115 1069.375,475.625 C1065.05553,476.916673 1060.38197,477.5625 1055.35417,477.5625 C1055.34028,477.659723 1055.33333,477.805555 1055.33333,478 C1055.33333,479.722231 1055.63889,481.364576 1056.25,482.927083 C1056.86111,484.489591 1057.72222,485.888883 1058.83333,487.125 C1059.52778,485.888883 1060.38541,484.732644 1061.40625,483.65625 C1062.42709,482.579856 1063.41666,481.715281 1064.375,481.0625 C1065.33334,480.409719 1066.23958,479.847225 1067.09375,479.375 C1067.94792,478.902775 1068.63889,478.569445 1069.16667,478.375 L1069.9375,478.104167 C1069.99306,478.090278 1070.08333,478.065972 1070.20833,478.03125 C1070.33333,477.996528 1070.42361,477.965278 1070.47917,477.9375 L1070.47917,477.9375 Z M1068.25,473.520833 C1066.58333,470.562485 1064.8889,467.937511 1063.16667,465.645833 C1061.24999,466.548616 1059.62501,467.840269 1058.29167,469.520833 C1056.95833,471.201397 1056.06945,473.090267 1055.625,475.1875 C1059.81947,475.1875 1064.02776,474.63195 1068.25,473.520833 L1068.25,473.520833 Z M1082.5,480.166667 C1079.58332,479.333329 1076.74307,479.131942 1073.97917,479.5625 C1075.18751,482.881961 1076.07639,486.138873 1076.64583,489.333333 C1078.18751,488.291661 1079.47222,486.975702 1080.5,485.385417 C1081.52778,483.795131 1082.19444,482.055565 1082.5,480.166667 L1082.5,480.166667 Z M1065.72917,464.729167 C1065.71528,464.729167 1065.70139,464.736111 1065.6875,464.75 C1065.70139,464.736111 1065.71528,464.729167 1065.72917,464.729167 L1065.72917,464.729167 Z M1078.02083,467.75 C1075.45138,465.472211 1072.44446,464.333333 1069,464.333333 C1067.94444,464.333333 1066.86806,464.465276 1065.77083,464.729167 C1067.59029,467.09029 1069.2986,469.743041 1070.89583,472.6875 C1071.85417,472.326387 1072.75694,471.906252 1073.60417,471.427083 C1074.45139,470.947914 1075.12153,470.520835 1075.61458,470.145833 C1076.10764,469.770831 1076.5625,469.375002 1076.97917,468.958333 C1077.39584,468.541665 1077.65625,468.260417 1077.76042,468.114583 C1077.86458,467.968749 1077.95139,467.847223 1078.02083,467.75 L1078.02083,467.75 Z M1082.66667,477.854167 C1082.625,474.631928 1081.59029,471.784735 1079.5625,469.3125 L1079.54167,469.333333 C1079.41667,469.500001 1079.28472,469.670138 1079.14583,469.84375 C1079.00694,470.017362 1078.70486,470.326387 1078.23958,470.770833 C1077.7743,471.21528 1077.28125,471.635415 1076.76042,472.03125 C1076.23958,472.427085 1075.54514,472.87847 1074.67708,473.385417 C1073.80902,473.892364 1072.89584,474.340276 1071.9375,474.729167 C1072.28472,475.465281 1072.59028,476.124997 1072.85417,476.708333 C1072.88194,476.791667 1072.92708,476.913194 1072.98958,477.072917 C1073.05208,477.23264 1073.10417,477.347222 1073.14583,477.416667 C1073.64584,477.347222 1074.16319,477.298611 1074.69792,477.270833 C1075.23264,477.243055 1075.74305,477.229167 1076.22917,477.229167 C1076.71528,477.229167 1077.19444,477.239583 1077.66667,477.260417 C1078.13889,477.28125 1078.58333,477.309028 1079,477.34375 C1079.41667,477.378472 1079.80903,477.416666 1080.17708,477.458333 C1080.54514,477.5 1080.87847,477.545139 1081.17708,477.59375 C1081.4757,477.642361 1081.72917,477.684028 1081.9375,477.71875 C1082.14583,477.753472 1082.31944,477.784722 1082.45833,477.8125 L1082.66667,477.854167 Z M1085,478 C1085,480.902792 1084.28473,483.579849 1082.85417,486.03125 C1081.4236,488.482651 1079.48265,490.423604 1077.03125,491.854167 C1074.57985,493.284729 1071.90279,494 1069,494 C1066.09721,494 1063.42015,493.284729 1060.96875,491.854167 C1058.51735,490.423604 1056.5764,488.482651 1055.14583,486.03125 C1053.71527,483.579849 1053,480.902792 1053,478 C1053,475.097208 1053.71527,472.420151 1055.14583,469.96875 C1056.5764,467.517349 1058.51735,465.576396 1060.96875,464.145833 C1063.42015,462.715271 1066.09721,462 1069,462 C1071.90279,462 1074.57985,462.715271 1077.03125,464.145833 C1079.48265,465.576396 1081.4236,467.517349 1082.85417,469.96875 C1084.28473,472.420151 1085,475.097208 1085,478 L1085,478 Z" id=""></path>
        </g>
    </g>
</svg>