<?xml version="1.0" encoding="UTF-8" standalone="no"?>
<svg width="20px" height="16px" viewBox="0 0 20 16" version="1.1" xmlns="http://www.w3.org/2000/svg" xmlns:xlink="http://www.w3.org/1999/xlink" xmlns:sketch="http://www.bohemiancoding.com/sketch/ns">
    <!-- Generator: Sketch 3.3.3 (12081) - http://www.bohemiancoding.com/sketch -->
    <title>Shape</title>
    <desc>Created with Sketch.</desc>
    <defs></defs>
    <g id="Welcome" stroke="none" stroke-width="1" fill="none" fill-rule="evenodd" sketch:type="MSPage">
        <g id="Desktop" sketch:type="MSArtboardGroup" transform="translate(-343.000000, -968.000000)" fill="#535353">
            <g id="medium" sketch:type="MSLayerGroup" transform="translate(331.000000, 954.000000)">
                <path d="M32,16.3569604 L31.2094313,16.3569604 C30.9158576,16.3569604 30.4997688,16.7856048 30.4997688,17.0600774 L30.4997688,26.9936492 C30.4997688,27.2681218 30.9158576,27.6418717 31.2094313,27.6418717 L32,27.6418717 L32,30 L24.832871,30 L24.832871,27.6418717 L26.3331022,27.6418717 L26.3331022,17.1990656 L26.2602866,17.1990656 L22.7570504,30 L20.0455386,30 L16.5873786,17.1990656 L16.4995377,17.1990656 L16.4995377,27.6418717 L17.9997688,27.6418717 L17.9997688,30 L12,30 L12,27.6418717 L12.7686084,27.6418717 C13.0852982,27.6418717 13.5002312,27.2681218 13.5002312,26.9936492 L13.5002312,17.0600774 C13.5002312,16.7856048 13.0852982,16.3569604 12.7686084,16.3569604 L12,16.3569604 L12,14 L19.5023116,14 L21.9664817,23.2631579 L22.0335183,23.2631579 L24.5196486,14 L32,14 L32,16.3569604" id="Shape" sketch:type="MSShapeGroup"></path>
            </g>
        </g>
    </g>
</svg>