<?xml version="1.0" encoding="UTF-8" standalone="no"?>
<svg width="195px" height="53px" viewBox="0 0 195 53" version="1.1" xmlns="http://www.w3.org/2000/svg" xmlns:xlink="http://www.w3.org/1999/xlink" xmlns:sketch="http://www.bohemiancoding.com/sketch/ns">
    <!-- Generator: Sketch 3.4.4 (17249) - http://www.bohemiancoding.com/sketch -->
    <title>App Store</title>
    <desc>Created with Sketch.</desc>
    <defs></defs>
    <g id="Welcome" stroke="none" stroke-width="1" fill="none" fill-rule="evenodd" sketch:type="MSPage">
        <g id="Wynk" sketch:type="MSArtboardGroup" transform="translate(-554.000000, -616.000000)" fill="#FFFFFF">
            <g id="App-Store" sketch:type="MSLayerGroup" transform="translate(534.000000, 602.000000)">
                <g id="icon" transform="translate(20.931618, 14.080000)" sketch:type="MSShapeGroup">
                    <path d="M30.738682,24.1620181 C30.687262,18.4395586 35.4179006,15.6555634 35.6342192,15.5259514 C32.9550606,11.6145092 28.8024536,11.0800815 27.3431899,11.0374693 C23.8554964,10.6699394 20.472416,13.1272412 18.6957669,13.1272412 C16.8836557,13.1272412 14.1477579,11.0729795 11.1990877,11.1333467 C7.40464743,11.1919385 3.85489536,13.3917918 1.90802834,16.8078675 C-2.1098229,23.773182 0.886721054,34.0089807 4.73612752,39.6391138 C6.6617173,42.3982519 8.91178492,45.4752058 11.8569089,45.3668998 C14.7382011,45.2497164 15.8144746,43.5274744 19.2915295,43.5274744 C22.7366685,43.5274744 23.7473371,45.3668998 26.7509735,45.2958796 C29.843265,45.2497164 31.790132,42.5278639 33.6483439,39.7438687 C35.8735881,36.587017 36.7672319,33.471002 36.802694,33.3112064 C36.7317699,33.2881248 30.7989675,31.0208022 30.738682,24.1620181" id="Fill-2"></path>
                    <path d="M25.7760799,7.26004869 C27.3257719,5.31941938 28.3860874,2.67924027 28.0917523,0 C25.8487771,0.0994283997 23.0437283,1.55356875 21.4284315,3.45158588 C19.9993106,5.1241136 18.7226765,7.86549662 19.0524736,10.443533 C21.5720529,10.6317367 24.1590101,9.17049437 25.7760799,7.26004869" id="Fill-3"></path>
                </g>
                <g transform="translate(73.500339, 35.040000)" sketch:type="MSShapeGroup">
                    <path d="M19.9208114,24.628449 L15.8940947,24.628449 L13.6883546,17.6879916 L6.02145755,17.6879916 L3.92033058,24.628449 L0,24.628449 L7.59774606,1 L12.2893764,1 L19.9208114,24.628449 L19.9208114,24.628449 Z M13.023441,14.7761599 L11.0287002,8.60804808 C10.817701,7.97596754 10.4205259,6.49164358 9.83894816,4.15507618 L9.76802404,4.15507618 C9.53397446,5.16001322 9.15984974,6.64433719 8.64742299,8.60804808 L6.68637115,14.7761599 L13.023441,14.7761599 L13.023441,14.7761599 Z" id="Fill-4"></path>
                    <path d="M39.381698,15.6609238 C39.381698,18.5585515 38.5962134,20.8489557 37.0234711,22.5303609 C35.6156273,24.0271134 33.8655748,24.774602 31.7786326,24.774602 C29.5250188,24.774602 27.9044027,23.9702972 26.9203306,22.3563612 L26.9203306,31.2960397 L23.1400751,31.2960397 L23.1400751,12.9514999 C23.1400751,11.1316051 23.0922014,9.26554711 23,7.35155041 L26.324568,7.35155041 L26.5355672,10.0538723 L26.6064914,10.0538723 C27.8671675,8.01736559 29.7803456,7 32.3477986,7 C34.3549512,7 36.0305334,7.79365169 37.3709992,9.38273058 C38.709692,10.9753605 39.381698,13.0669079 39.381698,15.6609238 L39.381698,15.6609238 Z M35.5305184,15.7994134 C35.5305184,14.1410897 35.1581668,12.7739492 34.4099174,11.6979919 C33.5925169,10.5776469 32.4949662,10.0148111 31.1190383,10.0148111 C30.1863862,10.0148111 29.338843,10.3273004 28.581728,10.9451769 C27.82284,11.5648289 27.3263711,12.3762356 27.0940947,13.3829482 C26.9770699,13.8499065 26.9185575,14.2316406 26.9185575,14.5334768 L26.9185575,17.3778392 C26.9185575,18.6135922 27.2980015,19.6593659 28.0568896,20.5151603 C28.8157776,21.3674038 29.8016228,21.795301 31.0144252,21.795301 C32.4382269,21.795301 33.5464162,21.2431183 34.3389932,20.1476304 C35.1333434,19.0485914 35.5305184,17.5997776 35.5305184,15.7994134 L35.5305184,15.7994134 Z" id="Fill-5"></path>
                    <path d="M59.3834711,15.6609238 C59.3834711,18.5585515 58.5979865,20.8489557 57.0252442,22.5303609 C55.6156273,24.0271134 53.8673479,24.774602 51.7786326,24.774602 C49.5267919,24.774602 47.9061758,23.9702972 46.9203306,22.3563612 L46.9203306,31.2960397 L43.1400751,31.2960397 L43.1400751,12.9514999 C43.1400751,11.1316051 43.0922014,9.26554711 43,7.35155041 L46.324568,7.35155041 L46.5355672,10.0538723 L46.6064914,10.0538723 C47.8653944,8.01736559 49.7785725,7 52.3477986,7 C54.3531781,7 56.0305334,7.79365169 57.3727724,9.38273058 C58.709692,10.9753605 59.3834711,13.0669079 59.3834711,15.6609238 L59.3834711,15.6609238 Z M55.5305184,15.7994134 C55.5305184,14.1410897 55.1563937,12.7739492 54.4081443,11.6979919 C53.5925169,10.5776469 52.4967393,10.0148111 51.1208114,10.0148111 C50.1881593,10.0148111 49.3406161,10.3273004 48.5799549,10.9451769 C47.82284,11.5648289 47.3263711,12.3762356 47.0940947,13.3829482 C46.978843,13.8499065 46.9167844,14.2316406 46.9167844,14.5334768 L46.9167844,17.3778392 C46.9167844,18.6135922 47.2980015,19.6593659 48.0533434,20.5151603 C48.8122314,21.3656282 49.7980766,21.795301 51.0144252,21.795301 C52.44,21.795301 53.5481893,21.2431183 54.3389932,20.1476304 C55.1333434,19.0485914 55.5305184,17.5997776 55.5305184,15.7994134 L55.5305184,15.7994134 Z" id="Fill-6"></path>
                    <path d="M80.6351916,17.3520313 C80.6351916,19.3619053 79.9348159,20.9971474 78.5376108,22.259533 C77.0021037,23.6373265 74.8584222,24.3279988 72.1101127,24.3279988 C69.5710293,24.3279988 67.5355071,23.8379588 66,22.8561034 L66.8741397,19.7010272 C68.531991,20.6828826 70.3529677,21.1746981 72.3352968,21.1746981 C73.7608715,21.1746981 74.8690609,20.8515558 75.6598648,20.2105977 C76.4542149,19.5660887 76.853163,18.7085187 76.853163,17.6361124 C76.853163,16.675563 76.5233659,15.8694828 75.870864,15.2143207 C75.216589,14.5627095 74.1349962,13.9519351 72.6172201,13.3944258 C68.4858903,11.8515101 66.4184523,9.59306506 66.4184523,6.62619264 C66.4184523,4.68733884 67.1489707,3.10003546 68.6046882,1.85895597 C70.0621788,0.619651991 71.994861,0 74.3991886,0 C76.5464162,0 78.3354771,0.374632006 79.7557325,1.12212051 L78.8071225,4.20795192 C77.4702029,3.483545 75.9612923,3.12134155 74.2732983,3.12134155 C72.9399249,3.12134155 71.892021,3.44981037 71.1455447,4.10319699 C70.5160932,4.68733884 70.1951615,5.39931721 70.1951615,6.2444586 C70.1951615,7.17659985 70.5586476,7.95072096 71.2838467,8.5561689 C71.9115252,9.11722915 73.0569497,9.7262281 74.7130278,10.3796147 C76.7450038,11.199899 78.2361833,12.1551219 79.1936589,13.2523853 C80.1564538,14.3496487 80.6351916,15.7185647 80.6351916,17.3520313" id="Fill-7"></path>
                    <path d="M93.3602404,10.0896 L89.1934485,10.0896 L89.1934485,18.3616878 C89.1934485,20.4656637 89.9275131,21.5149884 91.3991886,21.5149884 C92.0747408,21.5149884 92.6350413,21.4581722 93.0783171,21.3392132 L93.1829301,24.2137593 C92.4382269,24.4925139 91.457701,24.632779 90.2448986,24.632779 C88.7501728,24.632779 87.5852442,24.1746981 86.7412472,23.263863 C85.9007964,22.3512523 85.480571,20.8225406 85.480571,18.670626 L85.480571,10.082498 L83,10.082498 L83,7.24168655 L85.480571,7.24168655 L85.480571,4.12212051 L89.1934485,3 L89.1934485,7.24168655 L93.3602404,7.24168655 L93.3602404,10.0896" id="Fill-8"></path>
                    <path d="M112.665394,15.7248421 C112.665394,18.3437151 111.918918,20.4938542 110.424192,22.1752595 C108.862089,23.9046035 106.784012,24.7692754 104.193509,24.7692754 C101.693434,24.7692754 99.7057851,23.9401136 98.2234711,22.2817899 C96.741157,20.6234663 96,18.5319189 96,16.0089232 C96,13.3687441 96.7677536,11.2061764 98.2926221,9.52477115 C99.8210368,7.84336589 101.881382,7 104.471886,7 C106.970188,7 108.973794,7.83271285 110.493343,9.48926101 C111.943742,11.099646 112.665394,13.1752138 112.665394,15.7248421 L112.665394,15.7248421 Z M108.746837,15.8118419 C108.746837,14.2511711 108.409947,12.9124388 107.734395,11.7920938 C106.941818,10.4391573 105.805259,9.76446461 104.33713,9.76446461 C102.824673,9.76446461 101.659745,10.4391573 100.870714,11.7920938 C100.191615,12.9124388 99.8564989,14.2742527 99.8564989,15.8828622 C99.8564989,17.4453085 100.191615,18.7875919 100.870714,19.9026104 C101.688114,21.2573223 102.828219,21.9337905 104.306987,21.9337905 C105.750293,21.9337905 106.883306,21.2413427 107.704252,19.8706512 C108.397536,18.7236736 108.746837,17.3760637 108.746837,15.8118419 L108.746837,15.8118419 Z" id="Fill-9"></path>
                    <path d="M124.106657,10.6806263 C123.732532,10.6113815 123.331811,10.5776469 122.915131,10.5776469 C121.585304,10.5776469 120.556905,11.0765644 119.833479,12.0850524 C119.204027,12.972806 118.890188,14.0949265 118.890188,15.4496385 L118.890188,24.3893169 L115.109932,24.3893169 L115.109932,12.717133 C115.109932,10.7551976 115.072697,8.96371089 115,7.35332592 L118.292652,7.35332592 L118.430954,10.613157 L118.535567,10.613157 C118.936289,9.49281202 119.563967,8.58907889 120.425695,7.91438618 C121.269692,7.30361172 122.177521,7 123.158047,7 C123.507348,7 123.82296,7.02663261 124.10311,7.06924478 L124.106657,10.6806263" id="Fill-10"></path>
                    <path d="M141.121022,15.090986 C141.121022,15.7692298 141.076694,16.3409431 140.98272,16.8079014 L129.643727,16.8079014 C129.684508,18.4910822 130.235943,19.7801004 131.287393,20.6678539 C132.243095,21.4597301 133.480721,21.8574437 134.996724,21.8574437 C136.675853,21.8574437 138.207814,21.5911177 139.585515,21.0513635 L140.177731,23.679114 C138.567754,24.3804394 136.665214,24.7319898 134.473659,24.7319898 C131.835282,24.7319898 129.764298,23.9543177 128.25716,22.4025244 C126.755342,20.8489557 126,18.7591838 126,16.1456373 C126,13.5782539 126.698603,11.4387678 128.1029,9.73250548 C129.571029,7.91083516 131.555131,7 134.05166,7 C136.503862,7 138.360301,7.91083516 139.619204,9.73250548 C140.619234,11.1759928 141.121022,12.965704 141.121022,15.090986 L141.121022,15.090986 Z M137.516304,14.1091306 C137.5429,12.9852346 137.294666,12.0193587 136.782239,11.1990744 C136.127964,10.1444231 135.120841,9.61887303 133.77151,9.61887303 C132.533884,9.61887303 131.528535,10.1319946 130.762554,11.1617887 C130.133103,11.9802975 129.758978,12.965704 129.643727,14.1055796 L137.516304,14.1091306 L137.516304,14.1091306 Z" id="Fill-11"></path>
                </g>
                <g id="Available-on-the" transform="translate(74.778605, 15.267965)" sketch:type="MSShapeGroup">
                    <path d="M9.79284748,11.6135922 L7.81229151,11.6135922 L6.72892562,8.20284298 L2.96108189,8.20284298 L1.92736289,11.6135922 L0,11.6135922 L3.73415477,0 L6.03918858,0 L9.79284748,11.6135922 L9.79284748,11.6135922 Z M6.40267468,6.77178422 L5.42214876,3.73921803 C5.31930879,3.42850428 5.12958678,2.70587288 4.83702479,1.55179324 L4.80156273,1.55179324 C4.68099174,2.05071074 4.50900075,2.77511766 4.25012772,3.73921803 L3.28733283,6.77178422 L6.40267468,6.77178422 L6.40267468,6.77178422 Z" id="Fill-12"></path>
                    <path d="M19.0374756,3 L15.8707137,11.3732917 L14.0639219,11.3732917 L11,3 L12.9965139,3 L14.4256349,7.4281148 C14.6667769,8.16850128 14.8724568,8.87515312 15.0267168,9.54629482 L15.0781367,9.54629482 C15.2164388,8.9443979 15.4221187,8.23774606 15.6792186,7.4281148 L17.0906086,3 L19.0374756,3" id="Fill-13"></path>
                    <path d="M26.1969647,11.5455159 L26.0586627,10.5814155 L26.0072427,10.5814155 C25.4398497,11.3573121 24.6135838,11.7354951 23.5639068,11.7354951 C22.067408,11.7354951 21,10.6843949 21,9.27109121 C21,7.2044009 22.7890609,6.1355456 25.8866717,6.1355456 L25.8866717,5.98107648 C25.8866717,4.87848655 25.3015477,4.32630383 24.1490308,4.32630383 C23.3227648,4.32630383 22.5993388,4.53403817 21.964568,4.94773133 L21.5868971,3.72440691 C22.3617431,3.24146897 23.3245379,3 24.4610969,3 C26.6455597,3 27.7484298,4.15407964 27.7484298,6.46401443 L27.7484298,9.54807032 C27.7484298,10.3932117 27.7838918,11.0483739 27.8690008,11.5472914 L26.1969647,11.5455159 L26.1969647,11.5455159 Z M25.9380917,7.37484959 C23.8724267,7.37484959 22.8404808,7.8755426 22.8404808,9.06335687 C22.8404808,9.94223291 23.3741848,10.3719056 24.1135687,10.3719056 C25.0604057,10.3719056 25.9380917,9.64927423 25.9380917,8.66741878 L25.9380917,7.37484959 L25.9380917,7.37484959 Z" id="Fill-14"></path>
                    <path d="M32.1010969,2.22293494 C31.482284,2.22293494 31,1.73999699 31,1.10258993 C31,0.46518287 31.4982419,0 32.136559,0 C32.7731029,0 33.2890759,0.46518287 33.2713449,1.10258993 C33.2713449,1.77550714 32.790834,2.22293494 32.1010969,2.22293494 L32.1010969,2.22293494 Z M31.207453,3.60250398 L33.0656649,3.60250398 L33.0656649,11.9757956 L31.207453,11.9757956 L31.207453,3.60250398 Z" id="Fill-15"></path>
                    <path d="M36,0 L37.8582119,0 L37.8582119,12.2154891 L36,12.2154891 L36,0 Z" id="Fill-16"></path>
                    <path d="M45.1969647,11.5472914 L45.0568896,10.583191 L45.0072427,10.583191 C44.4398497,11.3590876 43.6135838,11.7372706 42.5639068,11.7372706 C41.067408,11.7372706 40,10.6861704 40,9.27286672 C40,7.20617641 41.7890609,6.13732111 44.8866717,6.13732111 L44.8866717,5.98285199 C44.8866717,4.88026206 44.3015477,4.32807934 43.1490308,4.32807934 C42.3227648,4.32807934 41.5993388,4.53581367 40.964568,4.94950684 L40.585124,3.72440691 C41.3599699,3.24146897 42.3227648,3 43.4593238,3 C45.6437866,3 46.7484298,4.15407964 46.7484298,6.46401443 L46.7484298,9.54807032 C46.7484298,10.3932117 46.7838918,11.0483739 46.8654545,11.5472914 L45.1969647,11.5472914 L45.1969647,11.5472914 Z M44.9380917,7.37662509 C42.8724267,7.37662509 41.8404808,7.87731811 41.8404808,9.06513238 C41.8404808,9.94400841 42.3741848,10.3736811 43.1135687,10.3736811 C44.0604057,10.3736811 44.9380917,9.65104974 44.9380917,8.66919429 L44.9380917,7.37662509 L44.9380917,7.37662509 Z" id="Fill-17"></path>
                    <path d="M54.3547408,12.4054684 C53.1685349,12.4054684 52.2926221,11.9047754 51.723456,10.9229199 L51.687994,10.9229199 L51.5816078,12.2154891 L50,12.2154891 C50.0496469,11.5443474 50.0673779,10.7844304 50.0673779,9.95881953 L50.0673779,0 L51.929136,0 L51.929136,5.06729737 L51.9628249,5.06729737 C52.51426,4.13693163 53.4079038,3.67174876 54.6295718,3.67174876 C56.6438167,3.67174876 58.0552066,5.39576619 58.0552066,7.9098843 C58.0552066,10.5092267 56.4877836,12.4054684 54.3547408,12.4054684 L54.3547408,12.4054684 Z M53.9770699,5.13299113 C52.9078888,5.13299113 51.929136,6.06335687 51.929136,7.35592607 L51.929136,8.82071946 C51.929136,9.9747991 52.808595,10.9229199 53.9433809,10.9229199 C55.3352667,10.9229199 56.1650789,9.78659534 56.1650789,7.97735357 C56.1633058,6.28884628 55.3015778,5.13299113 53.9770699,5.13299113 L53.9770699,5.13299113 Z" id="Fill-18"></path>
                    <path d="M61,0 L62.8564388,0 L62.8564388,12.2154891 L61,12.2154891 L61,0 Z" id="Fill-19"></path>
                    <path d="M73.3707889,7.82405289 L67.7926071,7.82405289 C67.8298422,9.40958077 68.875973,10.3044364 70.4238918,10.3044364 C71.2519309,10.3044364 72.0090458,10.1659468 72.6792787,9.90849827 L72.9682945,11.2010675 C72.1774906,11.5455159 71.2483847,11.71774 70.1650188,11.71774 C67.5479189,11.71774 66,10.0629674 66,7.49735958 C66,4.92997626 67.585154,3 69.9575657,3 C72.0888355,3 73.4346206,4.58552787 73.4346206,6.980687 C73.4399399,7.30738032 73.423982,7.60033899 73.3707889,7.82405289 L73.3707889,7.82405289 Z M71.6686101,6.49774906 C71.6686101,5.20517986 71.012562,4.2925692 69.824583,4.2925692 C68.7571751,4.2925692 67.9167243,5.22293494 67.7926071,6.49774906 L71.6686101,6.49774906 L71.6686101,6.49774906 Z" id="Fill-20"></path>
                    <path d="M84.0267168,11.7354951 C81.5833809,11.7354951 80,9.90849827 80,7.4281148 C80,4.84297641 81.6170699,3 84.1667919,3 C86.5728926,3 88.1935086,4.73999699 88.1935086,7.29140075 C88.1935086,9.90849827 86.5232457,11.7354951 84.0267168,11.7354951 L84.0267168,11.7354951 Z M84.0976409,4.36003847 C82.755402,4.36003847 81.895447,5.61709752 81.895447,7.37484959 C81.895447,9.09886702 82.773133,10.3559261 84.0799098,10.3559261 C85.3866867,10.3559261 86.2643727,9.01186717 86.2643727,7.33933944 C86.2643727,5.63485259 85.4044177,4.36003847 84.0976409,4.36003847 L84.0976409,4.36003847 Z" id="Fill-21"></path>
                    <path d="M98.3282344,11.5472914 L96.4735687,11.5472914 L96.4735687,6.73921803 C96.4735687,5.25844508 95.9044027,4.5162831 94.7855748,4.5162831 C93.6844778,4.5162831 92.9255898,5.46440391 92.9255898,6.56699384 L92.9255898,11.5472914 L91.0709241,11.5472914 L91.0709241,5.56738332 C91.0709241,4.82699684 91.0496469,4.03334515 91,3.17222419 L92.6348009,3.17222419 L92.7216829,4.46479339 L92.774876,4.46479339 C93.2695718,3.56993779 94.2873328,3 95.4238918,3 C97.1757175,3 98.3282344,4.3440589 98.3282344,6.5314837 L98.3282344,11.5472914" id="Fill-22"></path>
                    <path d="M110.085259,4.4817695 L108.040872,4.4817695 L108.040872,8.54768084 C108.040872,9.5828015 108.400811,10.0994741 109.122464,10.0994741 C109.448715,10.0994741 109.727092,10.0639639 109.94873,10.0124742 L110.00015,11.4257779 C109.638437,11.5642675 109.15438,11.6335122 108.556844,11.6335122 C107.090488,11.6335122 106.218122,10.823881 106.218122,8.70392547 L106.218122,4.4817695 L105,4.4817695 L105,3.08622089 L106.218122,3.08622089 L106.218122,1.55218272 L108.040872,1 L108.040872,3.08444538 L110.085259,3.08444538 L110.085259,4.4817695" id="Fill-23"></path>
                    <path d="M120.26263,12.2154891 L118.402645,12.2154891 L118.402645,7.44292592 C118.402645,5.9443979 117.833479,5.18625635 116.716424,5.18625635 C115.753629,5.18625635 114.859985,5.84141848 114.859985,7.16772231 L114.859985,12.2154891 L113,12.2154891 L113,0 L114.859985,0 L114.859985,5.03001172 L114.895447,5.03001172 C115.478798,4.11740105 116.324568,3.66819775 117.407934,3.66819775 C119.179264,3.66819775 120.26263,5.04599128 120.26263,7.23519159 L120.26263,12.2154891" id="Fill-24"></path>
                    <path d="M129.370789,7.82405289 L123.79438,7.82405289 C123.829842,9.40958077 124.875973,10.3044364 126.425665,10.3044364 C127.255477,10.3044364 128.010819,10.1659468 128.677506,9.90849827 L128.968295,11.2010675 C128.179264,11.5455159 127.248385,11.71774 126.163246,11.71774 C123.547919,11.71774 122,10.0629674 122,7.49735958 C122,4.92997626 123.583381,3 125.955793,3 C128.088835,3 129.432847,4.58552787 129.432847,6.980687 C129.43994,7.30738032 129.422209,7.60033899 129.370789,7.82405289 L129.370789,7.82405289 Z M127.666837,6.49774906 C127.666837,5.20517986 127.014335,4.2925692 125.826356,4.2925692 C124.758948,4.2925692 123.916724,5.22293494 123.79438,6.49774906 L127.666837,6.49774906 L127.666837,6.49774906 Z" id="Fill-25"></path>
                </g>
            </g>
        </g>
    </g>
</svg>