<?xml version="1.0" encoding="UTF-8" standalone="no"?>
<svg width="276px" height="70px" viewBox="0 0 276 70" version="1.1" xmlns="http://www.w3.org/2000/svg" xmlns:xlink="http://www.w3.org/1999/xlink" xmlns:sketch="http://www.bohemiancoding.com/sketch/ns">
    <!-- Generator: Sketch 3.4.4 (17249) - http://www.bohemiancoding.com/sketch -->
    <title> Available on + Shape</title>
    <desc>Created with Sketch.</desc>
    <defs></defs>
    <g id="Welcome" stroke="none" stroke-width="1" fill="none" fill-rule="evenodd" sketch:type="MSPage">
        <g id="Artboard-6" sketch:type="MSArtboardGroup" transform="translate(-436.000000, -313.000000)" fill="#FFFFFF">
            <g id="Available-on-+-Rectangle-239" sketch:type="MSLayerGroup" transform="translate(416.000000, 289.000000)">
                <g id="-Available-on-+-Shape" transform="translate(20.000000, 24.000000)" sketch:type="MSShapeGroup">
                    <path d="M111.272949,17 L110.534668,14.1904297 L105.664062,14.1904297 L104.905273,17 L100.455078,17 L105.346191,1.94726562 L110.75,1.94726562 L115.702637,17 L111.272949,17 Z M109.693848,10.8681641 L109.047852,8.40722656 C108.89746,7.86034883 108.714601,7.15283637 108.499268,6.28466797 C108.283934,5.41649957 108.14209,4.79443547 108.07373,4.41845703 C108.012207,4.76709159 107.89087,5.34130459 107.709717,6.14111328 C107.528564,6.94092197 107.126956,8.5165898 106.504883,10.8681641 L109.693848,10.8681641 Z M120.132324,17 L115.702637,5.38232422 L119.88623,5.38232422 L121.85498,12.2524414 C121.861816,12.2866213 121.875488,12.3447262 121.895996,12.4267578 C121.916504,12.5087895 121.937012,12.6062006 121.95752,12.7189941 C121.978027,12.8317877 121.996826,12.9514154 122.013916,13.0778809 C122.031006,13.2043463 122.039551,13.3222651 122.039551,13.4316406 L122.111328,13.4316406 C122.111328,13.0761701 122.172851,12.6899435 122.295898,12.2729492 L124.356934,5.38232422 L128.530273,5.38232422 L124.100586,17 L120.132324,17 Z M137.492188,17 L136.723145,15.4619141 L136.641113,15.4619141 C136.101072,16.1318393 135.550784,16.5898425 134.990234,16.8359375 C134.429685,17.0820325 133.705083,17.2050781 132.816406,17.2050781 C131.722651,17.2050781 130.861331,16.8769564 130.232422,16.2207031 C129.603512,15.5644498 129.289062,14.6416075 129.289062,13.4521484 C129.289062,12.2148376 129.719722,11.2937042 130.581055,10.6887207 C131.442387,10.0837372 132.689933,9.74365272 134.32373,9.66845703 L136.261719,9.60693359 L136.261719,9.44287109 C136.261719,8.48583506 135.790044,8.00732422 134.84668,8.00732422 C133.999019,8.00732422 132.92237,8.29443072 131.616699,8.86865234 L130.458008,6.22314453 C131.81153,5.52587542 133.520497,5.17724609 135.584961,5.17724609 C137.075203,5.17724609 138.228756,5.54638303 139.045654,6.28466797 C139.862553,7.02295291 140.270996,8.05516915 140.270996,9.38134766 L140.270996,17 L137.492188,17 Z M134.518555,14.375 C135.003909,14.375 135.419188,14.2211929 135.764404,13.9135742 C136.109621,13.6059555 136.282227,13.2060571 136.282227,12.7138672 L136.282227,11.8115234 L135.359375,11.8525391 C134.040032,11.9003909 133.380371,12.3857376 133.380371,13.3085938 C133.380371,14.0195348 133.759762,14.375 134.518555,14.375 L134.518555,14.375 Z M147.02832,17 L143.019043,17 L143.019043,5.38232422 L147.02832,5.38232422 L147.02832,17 Z M142.916504,2.49072266 C142.916504,1.88915715 143.083983,1.44140772 143.418945,1.14746094 C143.753908,0.853514155 144.293942,0.706542969 145.039062,0.706542969 C145.784183,0.706542969 146.327635,0.85693209 146.669434,1.15771484 C147.011232,1.4584976 147.182129,1.90282909 147.182129,2.49072266 C147.182129,3.66650979 146.467781,4.25439453 145.039062,4.25439453 C143.624016,4.25439453 142.916504,3.66650979 142.916504,2.49072266 L142.916504,2.49072266 Z M153.836914,17 L149.827637,17 L149.827637,1.04492188 L153.836914,1.04492188 L153.836914,17 Z M164.193359,17 L163.424316,15.4619141 L163.342285,15.4619141 C162.802243,16.1318393 162.251956,16.5898425 161.691406,16.8359375 C161.130857,17.0820325 160.406254,17.2050781 159.517578,17.2050781 C158.423823,17.2050781 157.562503,16.8769564 156.933594,16.2207031 C156.304684,15.5644498 155.990234,14.6416075 155.990234,13.4521484 C155.990234,12.2148376 156.420894,11.2937042 157.282227,10.6887207 C158.143559,10.0837372 159.391105,9.74365272 161.024902,9.66845703 L162.962891,9.60693359 L162.962891,9.44287109 C162.962891,8.48583506 162.491216,8.00732422 161.547852,8.00732422 C160.700191,8.00732422 159.623542,8.29443072 158.317871,8.86865234 L157.15918,6.22314453 C158.512702,5.52587542 160.221669,5.17724609 162.286133,5.17724609 C163.776375,5.17724609 164.929928,5.54638303 165.746826,6.28466797 C166.563725,7.02295291 166.972168,8.05516915 166.972168,9.38134766 L166.972168,17 L164.193359,17 Z M161.219727,14.375 C161.705081,14.375 162.12036,14.2211929 162.465576,13.9135742 C162.810793,13.6059555 162.983398,13.2060571 162.983398,12.7138672 L162.983398,11.8115234 L162.060547,11.8525391 C160.741204,11.9003909 160.081543,12.3857376 160.081543,13.3085938 C160.081543,14.0195348 160.460934,14.375 161.219727,14.375 L161.219727,14.375 Z M176.79541,5.17724609 C178.060065,5.17724609 179.063229,5.70702595 179.804932,6.76660156 C180.546635,7.82617717 180.91748,9.2924711 180.91748,11.1655273 C180.91748,13.0522555 180.543217,14.5305122 179.794678,15.6003418 C179.046139,16.6701714 178.005378,17.2050781 176.672363,17.2050781 C176.241697,17.2050781 175.858888,17.158936 175.523926,17.0666504 C175.188963,16.9743648 174.889894,16.8461922 174.626709,16.6821289 C174.363524,16.5180656 174.057619,16.2446308 173.708984,15.8618164 L173.462891,15.8618164 L172.827148,17 L169.699707,17 L169.699707,1.04492188 L173.708984,1.04492188 L173.708984,4.65429688 C173.708984,5.08496309 173.661133,5.82665489 173.56543,6.87939453 L173.708984,6.87939453 C174.098635,6.27782902 174.548093,5.84375133 175.057373,5.57714844 C175.566653,5.31054554 176.145993,5.17724609 176.79541,5.17724609 L176.79541,5.17724609 Z M175.329102,8.32519531 C174.768552,8.32519531 174.3584,8.52001758 174.098633,8.90966797 C173.838866,9.29931835 173.708984,9.91112864 173.708984,10.7451172 L173.708984,11.309082 C173.708984,12.2592821 173.838866,12.94116 174.098633,13.3547363 C174.3584,13.7683126 174.782224,13.9750977 175.370117,13.9750977 C175.841799,13.9750977 176.2041,13.7341333 176.457031,13.2521973 C176.709962,12.7702613 176.836426,12.0610398 176.836426,11.1245117 C176.836426,9.25829145 176.333989,8.32519531 175.329102,8.32519531 L175.329102,8.32519531 Z M187.213379,17 L183.204102,17 L183.204102,1.04492188 L187.213379,1.04492188 L187.213379,17 Z M195.601074,17.2050781 C193.666494,17.2050781 192.164312,16.690679 191.094482,15.6618652 C190.024653,14.6330515 189.489746,13.1684665 189.489746,11.2680664 C189.489746,9.30614253 189.985347,7.80054236 190.976562,6.7512207 C191.967778,5.70189905 193.382803,5.17724609 195.22168,5.17724609 C196.971688,5.17724609 198.323482,5.63354036 199.2771,6.54614258 C200.230718,7.4587448 200.70752,8.77294064 200.70752,10.4887695 L200.70752,12.2729492 L193.540039,12.2729492 C193.567383,12.9223665 193.804929,13.4316388 194.252686,13.8007812 C194.700442,14.1699237 195.310543,14.3544922 196.083008,14.3544922 C196.787113,14.3544922 197.434811,14.2878425 198.026123,14.154541 C198.617435,14.0212396 199.258297,13.7939469 199.94873,13.4726562 L199.94873,16.3540039 C199.319821,16.6752946 198.670414,16.8974603 198.000488,17.0205078 C197.330563,17.1435553 196.530766,17.2050781 195.601074,17.2050781 L195.601074,17.2050781 Z M195.365234,7.90478516 C194.893552,7.90478516 194.498781,8.05346531 194.180908,8.35083008 C193.863036,8.64819485 193.676758,9.11474292 193.62207,9.75048828 L197.067383,9.75048828 C197.053711,9.1899386 196.894777,8.74218917 196.590576,8.40722656 C196.286375,8.07226395 195.877932,7.90478516 195.365234,7.90478516 L195.365234,7.90478516 Z M219.523438,11.1655273 C219.523438,13.0659275 219.012456,14.5476021 217.990479,15.6105957 C216.968501,16.6735893 215.538095,17.2050781 213.699219,17.2050781 C211.935538,17.2050781 210.532476,16.6616265 209.48999,15.574707 C208.447505,14.4877875 207.92627,13.0180757 207.92627,11.1655273 C207.92627,9.27196319 208.437251,7.80054236 209.459229,6.7512207 C210.481206,5.70189905 211.91503,5.17724609 213.760742,5.17724609 C214.902349,5.17724609 215.91064,5.41991945 216.785645,5.90527344 C217.660649,6.39062743 218.335691,7.08617711 218.810791,7.99194336 C219.285891,8.89770961 219.523438,9.95556036 219.523438,11.1655273 L219.523438,11.1655273 Z M211.99707,11.1655273 C211.99707,12.1635792 212.13037,12.9240697 212.396973,13.4470215 C212.663576,13.9699733 213.111325,14.2314453 213.740234,14.2314453 C214.362308,14.2314453 214.801512,13.9699733 215.057861,13.4470215 C215.31421,12.9240697 215.442383,12.1635792 215.442383,11.1655273 C215.442383,10.1743115 215.312501,9.42578378 215.052734,8.91992188 C214.792967,8.41405997 214.348636,8.16113281 213.719727,8.16113281 C213.104489,8.16113281 212.663576,8.412351 212.396973,8.91479492 C212.13037,9.41723884 211.99707,10.1674755 211.99707,11.1655273 L211.99707,11.1655273 Z M229.141602,17 L229.141602,10.6630859 C229.141602,9.89062114 229.030519,9.30786329 228.80835,8.91479492 C228.586181,8.52172655 228.229006,8.32519531 227.736816,8.32519531 C227.060055,8.32519531 226.571291,8.59521214 226.270508,9.13525391 C225.969725,9.67529567 225.819336,10.6015559 225.819336,11.9140625 L225.819336,17 L221.810059,17 L221.810059,5.38232422 L224.834961,5.38232422 L225.337402,6.81787109 L225.573242,6.81787109 C225.915041,6.27099336 226.388425,5.86084121 226.993408,5.58740234 C227.598392,5.31396348 228.293941,5.17724609 229.080078,5.17724609 C230.365241,5.17724609 231.364987,5.54980096 232.079346,6.29492188 C232.793705,7.04004279 233.150879,8.0893487 233.150879,9.44287109 L233.150879,17 L229.141602,17 Z M113.916016,45.265625 L129.9375,45.265625 L129.9375,65.2734375 C125.587218,66.7630283 120.805365,67.5078125 115.591797,67.5078125 C109.870414,67.5078125 105.448258,65.8489749 102.325195,62.53125 C99.2021328,59.2135251 97.640625,54.4824526 97.640625,48.3378906 C97.640625,42.3456732 99.3502433,37.6823083 102.769531,34.3476562 C106.188819,31.0130042 110.979136,29.3457031 117.140625,29.3457031 C119.476574,29.3457031 121.681305,29.565753 123.754883,30.0058594 C125.828461,30.4459657 127.635409,31.0045539 129.175781,31.6816406 L126.001953,39.5527344 C123.327461,38.2324153 120.390641,37.5722656 117.191406,37.5722656 C114.263006,37.5722656 111.999031,38.5244045 110.399414,40.4287109 C108.799797,42.3330173 108,45.0540188 108,48.5917969 C108,52.0618663 108.723626,54.7066966 110.170898,56.5263672 C111.618171,58.3460377 113.704413,59.2558594 116.429688,59.2558594 C117.919278,59.2558594 119.290358,59.1119806 120.542969,58.8242188 L120.542969,53.0097656 L113.916016,53.0097656 L113.916016,45.265625 Z M146.898438,67 L136.970703,67 L136.970703,38.2324219 L146.898438,38.2324219 L146.898438,67 Z M136.716797,31.0722656 C136.716797,29.5826748 137.131506,28.473962 137.960938,27.7460938 C138.790369,27.0182255 140.127595,26.6542969 141.972656,26.6542969 C143.817718,26.6542969 145.163407,27.026689 146.009766,27.7714844 C146.856124,28.5162798 147.279297,29.6165292 147.279297,31.0722656 C147.279297,33.9837385 145.510434,35.4394531 141.972656,35.4394531 C138.468732,35.4394531 136.716797,33.9837385 136.716797,31.0722656 L136.716797,31.0722656 Z M167.921875,59.6621094 C169.259121,59.6621094 170.858715,59.3320346 172.720703,58.671875 L172.720703,65.9082031 C171.383457,66.4837268 170.109707,66.8942045 168.899414,67.1396484 C167.689122,67.3850924 166.271492,67.5078125 164.646484,67.5078125 C161.311832,67.5078125 158.90821,66.6910889 157.435547,65.0576172 C155.962883,63.4241455 155.226562,60.9147305 155.226562,57.5292969 L155.226562,45.671875 L151.748047,45.671875 L151.748047,41.6347656 L156.166016,38.5117188 L158.730469,32.46875 L165.230469,32.46875 L165.230469,38.2324219 L172.289062,38.2324219 L172.289062,45.671875 L165.230469,45.671875 L165.230469,56.8691406 C165.230469,58.7311291 166.127595,59.6621094 167.921875,59.6621094 L167.921875,59.6621094 Z M195.851562,67 L195.851562,51.3085938 C195.851562,47.4491995 194.708996,45.5195312 192.423828,45.5195312 C190.79882,45.5195312 189.601241,46.2008395 188.831055,47.5634766 C188.060869,48.9261136 187.675781,51.1900883 187.675781,54.3554688 L187.675781,67 L177.748047,67 L177.748047,27.4921875 L187.675781,27.4921875 L187.675781,33.1035156 C187.675781,35.6425908 187.540366,38.5370931 187.269531,41.7871094 L187.726562,41.7871094 C188.674484,40.2975186 189.800124,39.2480499 191.103516,38.6386719 C192.406908,38.0292938 193.921866,37.7246094 195.648438,37.7246094 C198.864599,37.7246094 201.365551,38.6513579 203.151367,40.5048828 C204.937183,42.3584077 205.830078,44.9524573 205.830078,48.2871094 L205.830078,67 L195.851562,67 Z M233.074219,67 L231.830078,63.4199219 L231.246094,63.4199219 C230.416663,64.740241 229.261401,65.7516241 227.780273,66.4541016 C226.299146,67.156579 224.559906,67.5078125 222.5625,67.5078125 C219.39712,67.5078125 216.934254,66.5895274 215.173828,64.7529297 C213.413403,62.916332 212.533203,60.3222824 212.533203,56.9707031 L212.533203,38.2324219 L222.460938,38.2324219 L222.460938,53.9492188 C222.460938,55.8281344 222.727536,57.2499952 223.260742,58.2148438 C223.793948,59.1796923 224.669916,59.6621094 225.888672,59.6621094 C227.598316,59.6621094 228.817054,58.9892645 229.544922,57.6435547 C230.27279,56.2978448 230.636719,54.0254066 230.636719,50.8261719 L230.636719,38.2324219 L240.564453,38.2324219 L240.564453,67 L233.074219,67 Z M264.990234,37.7246094 C268.12176,37.7246094 270.605785,39.0364452 272.442383,41.6601562 C274.278981,44.2838673 275.197266,47.9146904 275.197266,52.5527344 C275.197266,57.2246327 274.270517,60.8850779 272.416992,63.5341797 C270.563467,66.1832815 267.986345,67.5078125 264.685547,67.5078125 C263.619135,67.5078125 262.671228,67.3935558 261.841797,67.1650391 C261.012366,66.9365223 260.271813,66.6191427 259.620117,66.2128906 C258.968421,65.8066386 258.210942,65.129562 257.347656,64.1816406 L256.738281,64.1816406 L255.164062,67 L247.419922,67 L247.419922,27.4921875 L257.347656,27.4921875 L257.347656,36.4296875 C257.347656,37.4960991 257.229168,39.3326693 256.992188,41.9394531 L257.347656,41.9394531 C258.312505,40.4498623 259.425449,39.3750033 260.686523,38.7148438 C261.947597,38.0546842 263.382153,37.7246094 264.990234,37.7246094 L264.990234,37.7246094 Z M261.359375,45.5195312 C259.971347,45.5195312 258.955732,46.0019483 258.3125,46.9667969 C257.669268,47.9316454 257.347656,49.4466043 257.347656,51.5117188 L257.347656,52.9082031 C257.347656,55.2610795 257.669268,56.9495392 258.3125,57.9736328 C258.955732,58.9977265 260.005201,59.5097656 261.460938,59.5097656 C262.628912,59.5097656 263.526039,58.9130919 264.152344,57.7197266 C264.778649,56.5263612 265.091797,54.7701939 265.091797,52.4511719 C265.091797,47.830055 263.847669,45.5195312 261.359375,45.5195312 L261.359375,45.5195312 Z" id="-Available-on"></path>
                    <path d="M0,38.3245083 C0,53.0453899 9.31136622,65.5364549 22.2259738,69.9429 C23.8520212,70.2497555 24.4445809,69.2207667 24.4445809,68.3370228 C24.4445809,67.5453356 24.4166488,65.4505353 24.4006876,62.6704244 C15.3606618,64.6833965 13.4532981,58.2026082 13.4532981,58.2026082 C11.9748918,54.3525944 9.84407133,53.327697 9.84407133,53.327697 C6.89324411,51.2594909 10.0675282,51.3024506 10.0675282,51.3024506 C13.3295988,51.5377065 15.045428,54.7371866 15.045428,54.7371866 C17.9463765,59.8289424 22.6529359,58.3580816 24.5044354,57.5050233 C24.7997176,55.3508977 25.6396759,53.8841283 26.5674207,53.0494813 C19.3509623,52.2086972 11.7634059,49.3508496 11.7634059,36.581569 C11.7634059,32.9422627 13.0303263,29.9678099 15.1092728,27.6377538 C14.7760828,26.794924 13.6607938,23.4072391 15.4284969,18.8207721 C15.4284969,18.8207721 18.1578624,17.9227083 24.3647749,22.2350511 C26.9584702,21.4965522 29.7377145,21.1262799 32.5009976,21.1140056 C35.2622855,21.1262799 38.0415298,21.4965522 40.6392154,22.2350511 C46.8421376,17.9227083 49.5675128,18.8207721 49.5675128,18.8207721 C51.3392062,23.4072391 50.2239172,26.794924 49.8907272,27.6377538 C51.973664,29.9678099 53.2306087,32.9422627 53.2306087,36.581569 C53.2306087,49.3815352 45.6330765,52.1984687 38.3926763,53.0249329 C39.5598392,54.0539217 40.5973173,56.0873509 40.5973173,59.1947743 C40.5973173,63.6503163 40.5594094,67.2446172 40.5594094,68.3370228 C40.5594094,69.2289495 41.1439885,70.2640754 42.7939777,69.9388086 C55.6966144,65.5241806 65,53.0433442 65,38.3245083 C65,19.9193149 50.4473741,5 32.4970073,5 C14.5526259,5 0,19.9193149 0,38.3245083 Z" id="Shape"></path>
                </g>
            </g>
        </g>
    </g>
</svg>