<svg width="40" height="40" viewBox="0 0 40 40" fill="none" xmlns="http://www.w3.org/2000/svg">
<rect width="40" height="40" fill="white"/>
<rect x="0.5" y="0.5" width="39" height="39" rx="3.5" stroke="black"/>
<path d="M22.0202 22.3399H16.3602C15.7336 23.7532 15.4202 24.7332 15.4202 25.2799C15.4202 25.6799 15.5669 25.9332 15.8602 26.0399C16.1669 26.1466 16.6202 26.1999 17.2202 26.1999V26.9999H11.7402V26.1999C12.0602 26.1599 12.3336 26.1066 12.5602 26.0399C12.8002 25.9732 13.0069 25.8799 13.1802 25.7599C13.3669 25.6399 13.5269 25.4866 13.6602 25.2999C13.7936 25.0999 13.9202 24.8599 14.0402 24.5799L19.3002 11.3999H20.7802L25.5602 23.0799C25.8402 23.7599 26.0736 24.2932 26.2602 24.6799C26.4602 25.0666 26.6669 25.3666 26.8802 25.5799C27.1069 25.7799 27.3602 25.9199 27.6402 25.9999C27.9336 26.0799 28.3069 26.1399 28.7602 26.1799V26.9999H21.2002V26.1799C21.8402 26.1532 22.3002 26.0866 22.5802 25.9799C22.8602 25.8732 23.0002 25.6599 23.0002 25.3399C23.0002 25.1532 22.9536 24.9132 22.8602 24.6199C22.7669 24.3266 22.6402 23.9666 22.4802 23.5399L22.0202 22.3399ZM16.8202 21.1399H21.5802L19.2802 15.0799H19.2002L16.8202 21.1399Z" fill="black"/>
</svg>
