<?xml version="1.0" encoding="UTF-8"?>
<svg width="32px" height="32px" viewBox="0 0 32 32" version="1.1" xmlns="http://www.w3.org/2000/svg" xmlns:xlink="http://www.w3.org/1999/xlink">
    <!-- Generator: Sketch 44.1 (41455) - http://www.bohemiancoding.com/sketch -->
    <title>dribbble</title>
    <desc>Created with Sketch.</desc>
    <defs></defs>
    <g id="2017" stroke="none" stroke-width="1" fill="none" fill-rule="evenodd">
        <g id="Desktop-HD-Copy-7" transform="translate(-833.000000, -662.000000)" fill="#FFFFFF">
            <g id="Group-5" transform="translate(557.000000, 643.000000)">
                <g id="dribbble" transform="translate(258.000000, 0.000000)">
                    <path d="M39.3333333,47.5833333 C38.7499971,44.2360944 37.7777846,40.7777956 36.4166667,37.2083333 L36.375,37.2083333 L36.3333333,37.2291667 C36.11111,37.3125004 35.8125019,37.4270826 35.4375,37.5729167 C35.0624981,37.7187507 34.3611163,38.0590251 33.3333333,38.59375 C32.3055504,39.1284749 31.354171,39.6979136 30.4791667,40.3020833 C29.6041623,40.906253 28.6944492,41.701384 27.75,42.6875 C26.8055508,43.673616 26.0902802,44.7013835 25.6041667,45.7708333 L25.2916667,45.5416667 C27.847235,47.6250104 30.7499838,48.6666667 34,48.6666667 C35.8333425,48.6666667 37.6111025,48.3055592 39.3333333,47.5833333 L39.3333333,47.5833333 Z M35.4791667,34.9375 C35.1874985,34.256941 34.8194467,33.4861154 34.375,32.625 C30.055534,33.9166731 25.3819696,34.5625 20.3541667,34.5625 C20.3402777,34.6597227 20.3333333,34.8055546 20.3333333,35 C20.3333333,36.7222308 20.6388858,38.3645755 21.25,39.9270833 C21.8611142,41.4895911 22.7222167,42.8888827 23.8333333,44.125 C24.5277812,42.8888827 25.3854116,41.7326443 26.40625,40.65625 C27.4270884,39.5798557 28.4166619,38.715281 29.375,38.0625 C30.3333381,37.409719 31.2395791,36.8472246 32.09375,36.375 C32.9479209,35.9027754 33.6388862,35.5694454 34.1666667,35.375 L34.9375,35.1041667 C34.9930558,35.0902777 35.0833327,35.0659724 35.2083333,35.03125 C35.333334,34.9965276 35.4236108,34.9652779 35.4791667,34.9375 L35.4791667,34.9375 Z M33.25,30.5208333 C31.583325,27.5624852 29.8888975,24.9375115 28.1666667,22.6458333 C26.2499904,23.5486156 24.6250067,24.8402694 23.2916667,26.5208333 C21.9583267,28.2013973 21.0694467,30.0902673 20.625,32.1875 C24.8194654,32.1875 29.0277567,31.63195 33.25,30.5208333 L33.25,30.5208333 Z M47.5,37.1666667 C44.5833188,36.3333292 41.7430694,36.1319423 38.9791667,36.5625 C40.187506,39.881961 41.076386,43.1388729 41.6458333,46.3333333 C43.1875077,45.2916615 44.4722171,43.9757024 45.5,42.3854167 C46.5277829,40.7951309 47.1944429,39.055565 47.5,37.1666667 L47.5,37.1666667 Z M30.7291667,21.7291667 C30.7152777,21.7291667 30.701389,21.736111 30.6875,21.75 C30.701389,21.736111 30.7152777,21.7291667 30.7291667,21.7291667 L30.7291667,21.7291667 Z M43.0208333,24.75 C40.451376,22.4722108 37.4444617,21.3333333 34,21.3333333 C32.9444392,21.3333333 31.868061,21.4652765 30.7708333,21.7291667 C32.5902869,24.0902896 34.2986031,26.7430408 35.8958333,29.6875 C36.8541715,29.3263871 37.7569402,28.9062524 38.6041667,28.4270833 C39.4513931,27.9479143 40.1215253,27.5208352 40.6145833,27.1458333 C41.1076414,26.7708315 41.5624979,26.3750021 41.9791667,25.9583333 C42.3958354,25.5416646 42.6562495,25.2604174 42.7604167,25.1145833 C42.8645839,24.9687493 42.9513885,24.8472227 43.0208333,24.75 L43.0208333,24.75 Z M47.6666667,34.8541667 C47.6249998,31.6319283 46.5902879,28.7847346 44.5625,26.3125 L44.5416667,26.3333333 C44.416666,26.5000008 44.2847229,26.670138 44.1458333,26.84375 C44.0069437,27.017362 43.7048634,27.3263867 43.2395833,27.7708333 C42.7743032,28.21528 42.2812526,28.6354147 41.7604167,29.03125 C41.2395807,29.4270853 40.5451432,29.8784697 39.6770833,30.3854167 C38.8090234,30.8923636 37.8958381,31.3402758 36.9375,31.7291667 C37.284724,32.4652815 37.5902765,33.1249971 37.8541667,33.7083333 C37.8819446,33.7916671 37.927083,33.9131936 37.9895833,34.0729167 C38.0520836,34.2326397 38.1041665,34.3472219 38.1458333,34.4166667 C38.6458358,34.3472219 39.1631918,34.2986112 39.6979167,34.2708333 C40.2326416,34.2430554 40.7430531,34.2291667 41.2291667,34.2291667 C41.7152802,34.2291667 42.1944421,34.2395832 42.6666667,34.2604167 C43.1388912,34.2812501 43.5833312,34.3090276 44,34.34375 C44.4166688,34.3784724 44.8090259,34.4166665 45.1770833,34.4583333 C45.5451407,34.5000002 45.8784707,34.5451386 46.1770833,34.59375 C46.4756959,34.6423614 46.7291656,34.6840276 46.9375,34.71875 C47.1458344,34.7534724 47.3194437,34.7847221 47.4583333,34.8125 L47.6666667,34.8541667 Z M50,35 C50,37.9027923 49.2847294,40.5798489 47.8541667,43.03125 C46.423604,45.4826511 44.4826511,47.423604 42.03125,48.8541667 C39.5798489,50.2847294 36.9027923,51 34,51 C31.0972077,51 28.4201511,50.2847294 25.96875,48.8541667 C23.5173489,47.423604 21.576396,45.4826511 20.1458333,43.03125 C18.7152706,40.5798489 18,37.9027923 18,35 C18,32.0972077 18.7152706,29.4201511 20.1458333,26.96875 C21.576396,24.5173489 23.5173489,22.576396 25.96875,21.1458333 C28.4201511,19.7152706 31.0972077,19 34,19 C36.9027923,19 39.5798489,19.7152706 42.03125,21.1458333 C44.4826511,22.576396 46.423604,24.5173489 47.8541667,26.96875 C49.2847294,29.4201511 50,32.0972077 50,35 L50,35 Z" id=""></path>
                </g>
            </g>
        </g>
    </g>
</svg>