<?xml version="1.0" encoding="UTF-8"?>
<svg width="39px" height="33px" viewBox="0 0 39 33" version="1.1" xmlns="http://www.w3.org/2000/svg" xmlns:xlink="http://www.w3.org/1999/xlink">
    <!-- Generator: Sketch 44.1 (41455) - http://www.bohemiancoding.com/sketch -->
    <title>medium</title>
    <desc>Created with Sketch.</desc>
    <defs></defs>
    <g id="2017" stroke="none" stroke-width="1" fill="none" fill-rule="evenodd">
        <g id="Desktop-HD-Copy-7" transform="translate(-571.000000, -661.000000)" fill="#FFFFFF">
            <g id="Group-5" transform="translate(557.000000, 643.000000)">
                <g id="medium">
                    <g id="Group-6" transform="translate(14.000000, 18.000000)">
                        <path d="M38.9440896,5.93532557 C38.9367623,5.92946605 38.9309005,5.92177543 38.9217414,5.9173808 L38.9085523,5.91078884 L27.3424605,0.130008057 C27.2644251,0.0908225298 27.1823597,0.0644546986 27.0991952,0.0432139457 C26.9947816,0.0164798945 26.8881699,0 26.7811918,0 C26.3382585,0 25.8975233,0.222295466 25.6586544,0.609756098 L19,11.4264264 L27.3563823,25 L38.9796268,6.11990039 C39.018095,6.05691057 38.9997768,5.97927195 38.9440896,5.93532557" id="Fill-53"></path>
                        <polyline id="Fill-54" points="15 9 15 21.4617095 26 27 15 9"></polyline>
                        <path d="M28,28.1993088 L36.9024182,32.7310812 C38.0608653,33.3209964 39,32.9079452 39,31.8091774 L39,10 L28,28.1993088" id="Fill-55"></path>
                        <path d="M12.9299412,5.92515996 L1.4399312,0.153491855 C1.23236348,0.0494168898 1.03485739,0 0.855983947,0 C0.352902394,0 0,0.391217044 0,1.04748832 L0,25.9693243 C0,26.6364523 0.485939516,27.4263738 1.0799484,27.724747 L11.200086,32.807948 C11.4594525,32.9382289 11.7065214,33 11.9297406,33 C12.5587788,33 13,32.5110723 13,31.6904524 L13,6.03859418 C13,5.99067477 12.9727963,5.94649907 12.9299412,5.92515996" id="Fill-56"></path>
                    </g>
                </g>
            </g>
        </g>
    </g>
</svg>