<?xml version="1.0" encoding="UTF-8"?>
<svg width="34px" height="30px" viewBox="0 0 34 30" version="1.1" xmlns="http://www.w3.org/2000/svg" xmlns:xlink="http://www.w3.org/1999/xlink">
    <!-- Generator: Sketch 44.1 (41455) - http://www.bohemiancoding.com/sketch -->
    <title>twitter</title>
    <desc>Created with Sketch.</desc>
    <defs></defs>
    <g id="2017" stroke="none" stroke-width="1" fill="none" fill-rule="evenodd">
        <g id="Desktop-HD-Copy-7" transform="translate(-704.000000, -664.000000)" fill="#FFFFFF">
            <g id="Group-5" transform="translate(557.000000, 643.000000)">
                <g id="twitter" transform="translate(129.000000, 0.000000)">
                    <path d="M47.8698948,26.4168075 C49.2654719,25.5361189 50.3363163,24.1396566 50.8388787,22.4761337 C49.5322165,23.2936247 48.0883161,23.8848277 46.5477692,24.2048928 C45.3184243,22.8186237 43.5613889,21.9542441 41.6168591,21.9542441 C37.8862999,21.9542441 34.8631939,25.1447017 34.8631939,29.0792596 C34.8631939,29.6378445 34.9192489,30.182159 35.0352249,30.7020099 C29.4219897,30.4043698 24.4446892,27.5706727 21.1103812,23.2569294 C20.5285686,24.3129403 20.1961042,25.5361189 20.1961042,26.8408427 C20.1961042,29.3116636 21.3887234,31.4929988 23.2018138,32.7732591 C22.0942437,32.7365637 21.0523932,32.4124214 20.1400492,31.8823773 L20.1400492,31.9700384 C20.1400492,35.4234794 22.4672996,38.3040651 25.5619241,38.956427 C24.993642,39.1235947 24.3982989,39.2071786 23.7797606,39.2071786 C23.3448508,39.2071786 22.9196057,39.1643674 22.5098241,39.0807835 C23.368046,41.9104034 25.8634615,43.973498 28.8208478,44.028541 C26.5071279,45.9407769 23.5941991,47.078333 20.429989,47.078333 C19.8849021,47.078333 19.345614,47.0477536 18.8179236,46.9804787 C21.8081697,49.0007621 25.3589662,50.1811295 29.1745744,50.1811295 C41.6033286,50.1811295 48.3956524,39.3233806 48.3956524,29.9069438 C48.3956524,29.5970719 48.3917865,29.2892386 48.378256,28.9854826 C49.6984487,27.9804375 50.8466104,26.7246408 51.7492898,25.2955604 C50.5373413,25.8622998 49.234545,26.2455625 47.8698948,26.4168075 Z" id="Shape"></path>
                </g>
            </g>
        </g>
    </g>
</svg>